<svg xmlns="http://www.w3.org/2000/svg"
shape-rendering="geometricPrecision"
width="4000" height="4000" viewBox="0 0 560 560">
  <metadata>null</metadata>

<path d="
M 25.287 433.11
C 26.619 430.976 27.684 428.679 28.6 426.338
C 28.764 425.919 29.24 424.1 29.8 424.045
C 30.368 423.989 31.641 425.143 32.09 425.46
C 33.93 426.755 35.89 427.944 37.937 428.883
C 44.496 431.891 52.573 433.885 59.758 432.286
C 63.507 431.451 67.546 429.445 68.528 425.387
C 70.477 417.331 61.169 414.671 55.376 412.992
C 45.188 410.039 30.864 408.15 28.732 395.5
C 28.394 393.495 28.387 391.513 28.631 389.498
C 28.891 387.354 29.395 385.275 30.291 383.305
C 35.651 371.506 51.377 370.514 62.478 372.566
C 66.696 373.346 70.999 374.632 74.793 376.67
C 75.556 377.079 78.007 378.043 78.084 378.946
C 77.023 382.282 75.49 385.54 74.264 388.84
C 72.944 388.651 70.698 386.678 69.448 386.017
C 66.43 384.421 63.199 383.375 59.889 382.571
C 54.917 381.363 48.909 380.986 44.322 383.646
C 40.036 386.132 38.217 392.361 41.98 396.17
C 44.499 398.719 48.672 399.681 52.007 400.658
C 60.864 403.25 73.385 404.793 78.016 413.98
C 82.143 422.168 79.825 432.295 72.518 437.811
C 68.926 440.523 64.251 441.82 59.871 442.529
C 50.858 443.988 40.791 441.925 32.622 438.037
C 30.007 436.792 27.877 434.873 25.36 433.521
C 25.335 433.384 25.311 433.247 25.287 433.11 Z"
opacity="1" fill="rgb(2,2,2)" fill-rule="evenodd" />
<path d="
M 93.424 372.101
C 93.42 371.852 93.416 371.603 93.412 371.355
C 97.181 371.278 100.948 371.487 104.719 371.265
C 105.067 375.104 104.404 379.057 104.787 382.89
C 101.015 383.144 97.211 382.619 93.436 382.935
C 93.095 381.786 93.363 380.303 93.374 379.101
C 93.396 376.777 93.248 374.419 93.424 372.101 Z"
opacity="1" fill="rgb(1,1,1)" fill-rule="evenodd" />
<path d="
M 93.517 392.097
C 93.572 391.449 93.474 391.82 94.03 391.066
C 97.036 390.728 101.738 390.195 104.642 391.112
C 105.072 401.252 104.579 411.492 104.509 421.646
C 104.463 428.308 105.002 435.154 104.589 441.788
C 103.335 442.004 101.784 441.738 100.499 441.736
C 98.238 441.732 95.882 441.968 93.635 441.806
C 93.863 425.251 93.674 408.651 93.517 392.097 Z"
opacity="1" fill="rgb(1,1,1)" fill-rule="evenodd" />
<path d="
M 98.864 224.47
C 102.369 222.859 105.968 221.364 109.539 219.9
C 111.345 219.159 113.436 218.67 115.084 217.611
C 115.767 216.359 115.637 213.911 115.865 212.475
C 116.345 209.436 117.392 206.486 117.874 203.472
C 117.533 202.196 115.445 200.771 114.537 199.778
C 111.725 196.701 108.847 193.679 106.028 190.618
C 105.766 189.026 107.564 186.503 108.281 185.061
C 110.446 180.706 112.492 176.123 115.191 172.068
C 118.994 171.623 123.746 172.836 127.511 173.443
C 128.904 173.667 130.819 174.359 132.206 174.141
C 134.094 171.965 135.702 169.595 137.703 167.505
C 139.012 166.136 141.281 164.492 142.115 162.801
C 142.096 161.577 141.4 160.154 141.112 158.954
C 140.454 156.209 139.857 153.419 139.099 150.7
C 138.772 149.525 137.687 147.379 138.043 146.268
C 141.836 143.306 146 140.758 150.006 138.096
C 151.777 136.919 153.973 134.973 156.062 134.563
C 160.545 137.646 164.707 141.952 169.461 144.546
C 171.047 144.303 172.592 143.44 174.112 142.921
C 177.28 141.842 180.486 140.927 183.755 140.216
C 184.774 139.136 185.012 136.733 185.448 135.321
C 186.675 131.346 187.442 126.922 189.319 123.198
C 196.287 122.749 203.494 122.924 210.413 122.035
C 211.498 123.023 212.089 125.324 212.67 126.675
C 214.23 130.3 215.753 133.959 217.228 137.618
C 218.188 138.289 219.864 138.197 221.018 138.401
C 223.746 138.884 226.403 139.52 229.09 140.186
C 229.988 140.408 231.779 141.394 232.631 141.075
C 236.402 136.932 240.711 132.72 245.057 129.192
C 246.655 129.507 248.22 130.566 249.668 131.298
C 253.035 133 256.488 134.536 259.812 136.322
C 261.206 137.071 263.508 137.708 264.471 138.98
C 264.372 143.316 263.328 147.677 262.698 151.959
C 262.495 153.339 261.821 155.075 261.978 156.448
C 264.629 158.816 267.389 161.001 269.961 163.481
C 270.928 164.413 272.291 166.392 273.523 166.835
C 279.316 166.592 284.949 163.554 290.786 163.221
C 294.186 166.788 296.874 171.442 299.626 175.518
C 300.323 176.549 302.428 178.579 302.264 179.85
C 301.694 180.925 300.647 181.838 299.912 182.813
C 298.179 185.112 296.458 187.432 294.787 189.776
C 294.073 190.777 293.343 193.241 292.389 193.843
C 286.741 194.243 280.945 195.284 275.531 196.929
C 274.382 195.578 273.873 193.359 272.951 191.803
C 270.855 188.267 268.529 184.883 266.045 181.609
C 259.202 172.591 249.802 165.942 239.931 160.648
C 232.238 156.522 223.86 154.513 215.303 153.181
C 207.198 151.919 198.921 152.529 190.903 154.051
C 182.433 155.659 174.048 159.191 166.775 163.767
C 153.21 172.302 141.708 184.85 135.789 199.919
C 124.903 227.634 130.738 260.634 152.227 281.81
C 159.811 289.284 169.043 295.407 179.027 299.148
C 189.393 303.032 201.054 305.17 212.131 303.986
C 225.155 302.593 237.588 299.142 248.406 291.436
C 258.341 284.359 266.818 275.776 272.667 264.99
C 274.449 261.705 276.26 258.269 277.573 254.766
C 278.268 252.91 278.472 250.692 279.504 249.007
C 283.414 248.617 287.377 247.994 291.213 247.135
C 292.348 246.881 294.975 245.849 295.961 246.316
C 295.652 249.28 294.923 252.08 294.378 255.001
C 295.025 256.215 296.376 257.191 297.322 258.188
C 299.27 260.241 301.118 262.384 303.058 264.444
C 303.966 265.409 306.269 267.072 305.854 268.516
C 305.288 270.618 303.756 272.538 302.722 274.433
C 300.662 278.208 298.679 282.11 296.207 285.628
C 294.918 286.019 293.202 285.583 291.882 285.466
C 288.959 285.208 286.021 284.909 283.106 284.572
C 281.958 284.44 280.056 283.8 279.006 284.154
C 276.239 288.22 272.553 291.344 269.384 295.038
C 269.153 296.339 270.151 298.191 270.477 299.491
C 271.175 302.275 271.729 305.145 272.57 307.889
C 272.966 309.182 273.675 310.595 273.787 311.94
C 272.029 313.557 269.49 314.672 267.466 315.954
C 263.678 318.352 259.62 321.654 255.456 323.309
C 254.445 323.104 253.081 321.637 252.252 320.995
C 249.756 319.06 247.215 317.182 244.726 315.237
C 243.768 314.488 242.702 313.038 241.55 312.703
C 237.054 314.892 232.047 315.652 227.365 317.286
C 225.893 321.132 224.864 325.462 223.86 329.461
C 223.636 330.351 223.261 333.285 222.478 333.757
C 218.573 334.66 214.133 334.103 210.143 334.446
C 207.442 334.678 203.983 335.17 201.323 334.589
C 199.013 329.645 197.723 323.85 195.024 319.145
C 194.164 318.41 191.964 318.587 190.832 318.371
C 188.466 317.921 186.114 317.487 183.8 316.807
C 182.549 316.439 180.946 315.698 179.651 315.759
C 177.465 318.458 174.81 320.855 172.343 323.299
C 170.987 324.642 169.621 326.473 168.001 327.475
C 166.329 327.505 164.134 325.913 162.657 325.178
C 158.333 323.024 152.675 321.26 149.003 318.087
C 148.902 316.398 149.385 314.648 149.607 312.973
C 150.123 309.085 150.767 305.114 151.085 301.211
C 147.181 298.396 143.368 294.879 140.089 291.366
C 138.795 291.009 136.694 292.078 135.383 292.436
C 132.794 293.142 130.167 293.717 127.581 294.421
C 126.087 294.828 124.367 295.614 122.808 295.554
C 119.366 289.702 114.965 284.327 111.348 278.564
C 111.385 277.01 113.377 275.201 114.281 273.98
C 115.709 272.052 116.939 269.979 118.397 268.076
C 119.41 266.752 120.85 265.358 121.526 263.828
C 121.902 262.977 120.547 260.898 120.233 260.069
C 119.002 256.826 118.405 253.148 116.911 250.038
C 111.616 247.842 105.654 247.154 100.287 245.06
C 99.431 243.952 99.755 241.302 99.664 239.919
C 99.43 236.387 99.135 232.852 98.936 229.311
C 98.858 227.934 98.392 225.744 98.864 224.47 Z"
opacity="1" fill="rgb(172,28,36)" fill-rule="evenodd" />
<path d="
M 120.804 390.881
C 122.965 390.924 125.125 390.927 127.286 390.914
C 128.313 390.907 129.578 390.717 130.484 391.241
C 130.607 392.925 130.493 395.817 131.27 397.301
C 133.396 395.905 134.393 393.363 136.895 392.17
C 143.904 388.829 153.878 388.971 159.993 394.152
C 161.559 395.479 162.412 397.062 163.504 398.722
C 164.42 397.868 164.914 396.406 165.773 395.442
C 167.566 393.427 170.005 392.04 172.531 391.15
C 175.394 390.14 178.548 389.77 181.573 389.867
C 183.695 389.935 185.793 390.252 187.826 390.878
C 189.385 391.358 190.814 392.044 192.169 392.95
C 201.566 399.232 199.632 412.089 199.722 421.8
C 199.755 425.365 199.744 428.932 199.753 432.498
C 199.761 435.415 199.233 438.979 199.822 441.82
C 196.293 441.584 192.556 441.531 189.033 441.843
C 188.486 439.262 188.903 436.145 188.882 433.504
C 188.837 427.839 188.8 422.174 188.778 416.51
C 188.762 412.515 189.276 408.201 187.145 404.622
C 182.651 397.073 170.342 399.685 166.755 406.624
C 165.028 409.965 165.711 414.361 165.713 417.998
C 165.717 425.926 165.337 433.94 165.745 441.857
C 163.174 441.687 160.569 441.705 157.993 441.736
C 157.095 441.747 155.456 442.161 154.745 441.639
C 154.715 433.311 154.642 424.98 154.631 416.652
C 154.625 412.582 155.216 407.664 152.75 404.145
C 149.503 399.508 142.085 399.109 137.405 401.704
C 135.301 402.872 133.709 405.013 132.625 407.113
C 131.083 410.101 131.675 414.235 131.678 417.497
C 131.685 422.832 131.705 428.166 131.72 433.501
C 131.728 436.152 131.324 439.269 131.85 441.861
C 129.192 441.634 126.478 441.748 123.813 441.765
C 122.922 441.771 121.472 442.105 120.734 441.61
C 120.46 429.927 120.633 418.194 120.667 406.506
C 120.678 403.006 120.704 399.506 120.716 396.006
C 120.721 394.415 120.331 392.391 120.804 390.881 Z"
opacity="1" fill="rgb(1,1,1)" fill-rule="evenodd" />
<path d="
M 136.95 224.119
C 138.009 214.876 139.643 205.909 143.976 197.541
C 157.029 172.335 184.058 156.71 212.555 159.401
C 230.675 161.112 247.486 170.234 259.309 183.911
C 261.965 186.984 264.221 190.322 266.336 193.782
C 266.906 194.714 268.604 196.812 268.493 197.85
C 266.035 198.012 262.984 199.745 260.614 199.439
C 259.802 196.499 257.66 193.649 255.797 191.284
C 251.68 186.054 247.115 181.374 241.612 177.58
C 220.31 162.892 191.088 162.738 169.981 178.009
C 162.58 183.364 156.408 190.5 151.941 198.452
C 136.403 226.115 145.736 263.089 172.139 280.506
C 181.869 286.925 192.872 289.691 204.369 290.494
C 211.382 290.984 219.064 289.746 225.67 287.404
C 232.542 284.969 238.55 281.624 244.035 276.837
C 245.561 276.46 247.442 276.775 249.006 276.856
C 251.1 276.964 253.195 276.789 255.285 276.865
C 255.478 277.698 253.637 278.727 253.082 279.262
C 250.694 281.564 248.067 283.729 245.307 285.569
C 233.695 293.309 220.296 297.767 206.266 297.774
C 191.035 297.781 175.271 292.569 163.369 282.972
C 146.053 269.01 135.329 246.545 136.95 224.119 Z"
opacity="1" fill="rgb(170,29,36)" fill-rule="evenodd" />
<path d="
M 159.856 224.558
C 161.277 219.189 165.484 213.922 169.281 210.009
C 180.971 197.964 198.439 190.863 214.873 197.101
C 218.262 198.388 221.409 200.159 224.218 202.459
C 228.755 206.172 232.617 210.584 238.907 210.823
C 242.436 210.957 246.134 209.939 249.585 209.303
C 255.123 208.282 260.663 207.276 266.192 206.201
C 281.174 203.288 296.239 200.878 311.246 198.104
C 315.322 197.351 319.403 196.595 323.486 195.889
C 328.289 195.058 332.8 194.405 336.642 191.125
C 340.653 187.7 342.245 182.317 345.207 178.081
C 350.255 170.86 357.962 166.136 366.561 164.461
C 378.625 162.11 391.5 164.464 401.865 171.003
C 405.025 172.997 411.74 177.035 409.763 181.495
C 408.031 183.494 403.168 183.349 400.68 183.877
C 394.741 185.14 388.774 186.263 382.834 187.515
C 380.394 188.03 377.455 188.154 375.151 189.06
C 374.001 192.01 373.78 195.544 373.125 198.648
C 372.624 201.019 371.693 203.642 371.75 206.07
C 372.566 207.989 374.248 209.689 375.468 211.374
C 377.435 214.092 379.14 216.998 381.154 219.678
C 383.469 219.975 386.665 218.681 388.976 218.256
C 395.234 217.105 401.471 215.834 407.709 214.575
C 409.968 214.119 412.727 212.901 415.04 213.278
C 417.534 215.25 416.964 217.417 415.885 220.034
C 409.126 235.688 392.572 247.194 375.344 247.349
C 368.816 247.407 361.94 245.418 356.552 241.727
C 351.319 238.142 347.242 232.664 340.532 231.858
C 336.06 231.32 331.209 232.653 326.838 233.484
C 319.851 234.813 312.821 235.977 305.822 237.247
C 293.79 239.429 281.769 241.704 269.713 243.751
C 262.455 244.984 254.68 245.81 247.666 248.099
C 239.103 250.893 237.094 258.622 232.321 265.226
C 227.693 271.63 220.743 275.596 213.199 277.546
C 200.959 280.711 186.221 277.951 175.761 270.914
C 172.915 268.999 166.767 265.787 167.119 261.77
C 167.372 258.876 173.446 258.852 175.665 258.406
C 181.787 257.174 187.902 255.873 194.037 254.72
C 196.52 254.254 200.237 254.308 202.454 253.153
C 204.137 249.466 204.458 244.541 205.358 240.578
C 205.625 239.403 206.509 237.359 206.173 236.182
C 205.745 234.684 203.999 233.183 203.06 231.96
C 200.732 228.93 198.1 225.825 196.129 222.559
C 192.492 222.829 188.81 223.861 185.231 224.572
C 179.581 225.695 173.911 226.759 168.235 227.738
C 165.62 228.189 160.321 230.306 159.754 226.131
C 159.682 225.601 159.755 225.075 159.856 224.558 Z
M 170.25 219.68
C 170.201 219.817 170.152 219.953 170.103 220.089
C 172.089 220.254 174.658 219.159 176.628 218.768
C 181.41 217.818 186.219 217.017 190.993 216.022
C 192.928 215.619 196.514 214.194 198.441 214.788
C 199.411 215.087 200.322 216.368 200.934 217.119
C 202.724 219.318 204.357 221.635 205.993 223.948
C 207.7 226.361 209.525 228.692 211.314 231.044
C 212.127 232.113 213.332 233.351 213.735 234.653
C 214.255 236.337 213.056 238.767 212.735 240.442
C 211.865 244.994 210.695 249.574 209.446 254.035
C 209.038 255.491 208.852 257.636 207.802 258.797
C 206.515 260.222 203.795 260.16 202.053 260.549
C 197.074 261.662 192.009 262.886 186.976 263.693
C 185.131 263.989 183.303 264.386 181.467 264.684
C 180.741 264.801 179.974 264.71 179.651 265.433
C 183.041 267.804 187.497 268.875 191.404 270.035
C 200.487 272.732 211.391 272.586 219.666 267.526
C 231.222 260.46 235.994 243.607 233.768 230.802
C 235.782 230.775 238.145 230.266 240.118 230.711
C 240.886 235.073 240.887 239.831 240.227 244.21
C 240.541 244.551 242.572 242.941 243.058 242.684
C 245.045 241.632 247.295 241.002 249.474 240.5
C 260.081 238.055 270.913 236.339 281.655 234.601
C 294.738 232.485 307.745 229.827 320.796 227.517
C 327.197 226.384 334.01 224.45 340.554 224.863
C 344.817 225.132 349.029 226.838 352.462 229.355
C 356.36 232.212 359.355 235.666 363.825 237.774
C 375.457 243.258 389.461 238.824 398.999 231.167
C 401.637 229.049 405.807 225.599 406.896 222.284
C 404.603 221.821 401.547 223.026 399.306 223.53
C 394.808 224.54 390.245 225.292 385.714 226.139
C 383.638 226.527 380.876 227.579 378.788 227.026
C 377.043 225.846 375.772 223.648 374.574 221.948
C 372.385 218.842 370.132 215.768 368.033 212.599
C 366.998 211.037 365.162 209.392 364.667 207.561
C 364.149 205.649 365.318 202.834 365.699 200.935
C 366.492 196.981 367.359 193.044 368.229 189.107
C 368.639 187.252 368.728 184.989 369.672 183.326
C 371.843 182.123 374.646 181.932 377.046 181.423
C 381.852 180.405 386.665 179.359 391.482 178.401
C 393.239 178.052 395.114 177.454 396.889 177.31
C 397.266 177.279 398.563 177.321 398.509 176.802
C 395.225 174.357 390.484 172.848 386.555 171.852
C 375.402 169.022 362.271 169.918 353.714 178.513
C 351.304 180.934 349.374 183.743 347.841 186.79
C 345.368 191.709 344.166 197.249 343.89 202.726
C 343.758 205.338 344.502 208.683 343.845 211.172
C 342.359 212.335 339.435 212.249 337.777 211.54
C 336.986 210.703 337.263 209.083 337.251 208.008
C 337.218 204.984 337.353 201.986 337.664 198.982
C 329.967 202.24 321.649 203.205 313.467 204.782
C 300.293 207.321 287.061 209.552 273.847 211.887
C 266.45 213.194 259.093 214.724 251.709 216.109
C 247.399 216.917 242.948 218.025 238.534 217.729
C 228.255 217.039 222.664 208.455 213.96 204.415
C 200.114 197.988 186.3 204.624 175.582 213.685
C 173.657 215.505 171.789 217.523 170.25 219.68 Z"
opacity="1" fill="rgb(168,28,36)" fill-rule="evenodd" />
<path d="
M 214.986 458.133
C 215.845 445.357 215.147 432.301 215.075 419.499
C 215.022 410.063 215.754 400.394 215.045 390.988
C 215.746 390.553 217.163 390.807 218.001 390.809
C 220.363 390.814 222.722 390.828 225.083 390.786
C 225.402 392.587 225.193 394.616 225.755 396.35
C 226.899 395.669 227.742 394.438 228.84 393.643
C 231.253 391.895 234.15 390.726 237.098 390.291
C 240.666 389.764 244.397 389.777 247.907 390.675
C 262.422 394.388 268.239 411.092 264.73 424.672
C 262.012 435.19 253.741 442.668 242.635 442.793
C 238.528 442.839 234.268 442.182 230.67 440.092
C 229.56 439.448 228.581 438.672 227.617 437.832
C 227.248 437.511 227.02 437.275 226.716 436.878
C 226.558 436.671 226.524 436.177 226.271 436.236
C 226.024 436.294 226.236 436.742 226.219 436.995
C 226.934 442.343 226.341 448.104 226.331 453.498
C 226.327 455.166 227.008 458.271 226.361 459.74
C 222.622 459.636 218.719 459.96 215.007 459.631
C 215.013 459.13 214.987 458.634 214.986 458.133 Z
M 226.428 407.097
C 226.095 409.275 226.383 411.686 226.404 413.889
C 226.433 416.941 226.202 420.107 226.594 423.135
C 226.845 425.071 226.397 426.477 227.776 428.068
C 232.692 433.736 242.928 435.28 249.018 430.405
C 251.649 428.298 253.059 425.202 253.613 421.93
C 254.714 415.43 254.328 405.773 247.966 401.915
C 242.604 398.664 235.06 398.862 230.126 402.785
C 228.872 403.782 226.688 405.394 226.428 407.097 Z"
opacity="1" fill="rgb(1,1,1)" fill-rule="evenodd" />
<path d="
M 270.48 153.132
C 271.074 150.744 271.125 148.206 271.372 145.764
C 272.281 145.522 273.321 145.869 274.232 146.084
C 276.635 146.648 279.069 147.514 281.492 147.907
C 282.504 147.294 283.333 145.87 284.145 144.985
C 286.535 142.38 288.969 139.503 291.798 137.36
C 292.024 136.102 291.046 133.875 290.789 132.549
C 290.017 128.57 289.819 124.172 288.243 120.413
C 292.879 118.157 297.261 115.031 301.735 112.445
C 303.166 111.618 305.267 109.701 306.943 109.737
C 309.724 112.279 312.8 114.521 315.638 117.006
C 317.004 118.203 318.406 120.112 320.058 120.874
C 321.801 120.518 323.561 119.696 325.287 119.201
C 328.22 118.359 331.27 117.812 334.168 116.877
C 334.995 115.951 335.165 114.269 335.553 113.105
C 336.535 110.153 337.532 107.202 338.495 104.245
C 338.898 103.01 339.081 101.325 340.028 100.388
C 345.042 99.6 350.501 99.971 355.566 100.012
C 357.241 100.025 360.011 99.535 361.447 100.403
C 362.588 104.047 364.056 107.637 365.319 111.244
C 365.9 112.902 366.098 115.074 367.192 116.474
C 370.721 116.921 374.164 117.79 377.577 118.774
C 378.959 119.172 380.445 120.099 381.865 120.22
C 383.091 119.542 384.133 118.102 385.167 117.151
C 388.112 114.441 391.067 111.23 394.386 108.995
C 397.103 109.761 399.764 111.517 402.243 112.854
C 405.967 114.863 409.838 116.838 413.351 119.204
C 413.899 119.911 412.881 122.474 412.727 123.403
C 412.234 126.384 411.661 129.353 411.148 132.331
C 410.972 133.355 410.301 134.94 410.471 135.933
C 414.194 139.52 418.055 142.997 421.785 146.586
C 422.897 146.74 424.893 145.715 426.022 145.416
C 428.621 144.728 431.263 144.208 433.87 143.553
C 435.437 143.16 437.009 142.518 438.646 142.698
C 440.551 147.174 444.059 151.378 446.504 155.613
C 447.205 156.825 448.982 158.984 448.87 160.41
C 448.243 161.857 446.505 163.278 445.441 164.449
C 442.795 167.365 440.046 170.359 437.668 173.494
C 437.422 174.586 438.402 176.353 438.728 177.456
C 439.716 180.793 440.28 184.346 441.342 187.629
C 446.804 189.748 452.857 190.578 458.211 192.997
C 458.86 194.078 458.404 196.813 458.455 198.1
C 458.601 201.85 458.679 205.602 458.626 209.365
C 458.606 210.782 458.894 212.364 458.468 213.73
C 452.962 216.048 446.972 217.35 441.598 219.949
C 440.48 224.503 439.368 229.006 438.077 233.518
C 440.444 236.714 443.362 239.637 445.956 242.661
C 446.914 243.779 448.595 245.038 449.16 246.393
C 448.741 248.328 447.34 250.212 446.404 251.942
C 444.102 256.2 441.478 260.201 438.828 264.243
C 437.864 264.585 436.073 263.909 435.069 263.722
C 432.146 263.176 429.186 262.729 426.283 262.084
C 425.107 261.822 423.159 260.971 422.02 261.283
C 418.994 265.086 414.673 268.166 411.956 272.125
C 412.937 277.394 414.78 283.086 414.848 288.461
C 412.655 290.36 409.532 291.742 407.018 293.2
C 403.57 295.2 400.11 297.392 396.503 299.077
C 394.895 297.803 393.562 296.213 391.974 294.912
C 389.284 292.709 386.155 290.569 383.918 287.89
C 382.565 287.852 380.769 288.846 379.429 289.192
C 376.147 290.039 372.587 290.639 369.4 291.753
C 368.43 293.017 368.123 294.878 367.68 296.39
C 366.982 298.773 366.071 301.095 365.317 303.46
C 364.955 304.596 364.706 306.867 363.715 307.61
C 358.852 308.157 353.69 307.809 348.798 307.804
C 347.151 307.803 344.334 308.242 342.873 307.481
C 340.422 302.4 339.543 296.496 336.908 291.533
C 335.846 290.868 334.317 290.869 333.103 290.596
C 330.772 290.071 328.451 289.409 326.178 288.674
C 325.091 288.323 323.671 287.528 322.536 287.835
C 318.915 291.536 314.716 295.433 310.48 298.413
C 309.402 298.314 308.395 297.426 307.45 296.928
C 305.11 295.694 302.716 293.876 300.232 293.005
C 300.058 292.182 300.968 291.538 301.526 290.937
C 302.839 289.522 303.853 287.911 304.817 286.243
C 306.767 282.867 308.63 279.464 310.423 276.003
C 312.358 272.265 313.884 269.52 313.087 265.308
C 323.577 271.682 334.627 276.79 347.165 277.389
C 360.982 278.048 374.253 276.056 386.735 269.843
C 394.332 266.061 401.301 260.512 407.046 254.305
C 419.357 241.005 427.015 223.51 427.311 205.261
C 427.856 171.689 402.868 140.698 370.424 132.897
C 358.16 129.949 346.242 130.076 333.951 132.76
C 322.118 135.344 310.988 141.744 301.844 149.547
C 300.261 150.897 298.669 152.349 297.286 153.907
C 296.5 154.793 295.883 156.035 295 156.799
C 294.253 156.238 293.407 155.708 292.554 155.32
C 288.592 155.256 284.108 156.471 280.224 157.263
C 279.007 157.511 276.483 158.626 275.337 158.228
C 273.903 156.467 271.987 155.261 270.504 153.595
C 270.496 153.441 270.488 153.286 270.48 153.132 Z"
opacity="1" fill="rgb(0,1,1)" fill-rule="evenodd" />
<path d="
M 277.988 372.6
C 278.082 371.997 278.056 372.358 277.979 371.515
C 278.875 371.114 280.039 371.375 281.009 371.408
C 283.479 371.493 286.514 370.879 288.904 371.454
C 288.336 386.087 288.751 400.864 288.872 415.509
C 288.904 419.325 288.864 423.143 288.917 426.96
C 288.936 428.29 288.698 430.304 289.548 431.43
C 290.697 432.951 293.001 432.937 294.701 432.561
C 295.111 432.47 297.123 431.727 297.357 431.926
C 297.62 434.847 298.724 437.914 298.772 440.815
C 293.067 442.79 284.432 445.026 280.213 438.881
C 276.549 433.545 277.941 425.062 277.938 418.933
C 277.933 403.507 277.472 388.019 277.988 372.6 Z"
opacity="1" fill="rgb(1,1,1)" fill-rule="evenodd" />
<path d="
M 299.354 161.518
C 305.99 154.2 313.388 147.861 322.43 143.664
C 343.852 133.722 369.099 135.516 389.129 147.917
C 394.154 151.029 398.587 154.978 402.571 159.324
C 404.062 160.951 405.986 162.624 407.081 164.554
C 406.643 164.823 405.153 163.692 404.729 163.419
C 402.554 162.022 400.1 161.123 397.714 160.166
C 395.083 159.109 392.098 158.69 389.547 157.508
C 387.558 156.586 385.86 154.5 383.897 153.356
C 378.879 150.432 373.533 148.08 367.921 146.552
C 349.059 141.416 329.016 145.812 313.67 157.744
C 311.307 159.582 309.125 161.827 307.234 164.144
C 306.252 165.348 305.572 166.892 304.466 167.974
C 302.239 166.673 301.221 163.649 299.222 162.068
C 299.266 161.885 299.31 161.702 299.354 161.518 Z"
opacity="1" fill="rgb(2,2,1)" fill-rule="evenodd" />
<path d="
M 303.421 246.91
C 305.471 245.745 308.339 245.804 310.612 245.194
C 311.345 245.485 311.977 246.687 312.543 247.294
C 313.824 248.668 315.245 249.918 316.717 251.082
C 321.36 254.752 326.587 257.715 332.129 259.787
C 345.805 264.901 361.134 264.712 374.831 259.789
C 379.804 258.002 384.121 254.893 388.891 252.709
C 391.621 251.459 394.639 251.027 397.384 249.782
C 401.104 248.096 404.448 245.466 407.784 243.153
C 408.213 243.493 407.39 244.43 407.141 244.715
C 406.037 245.97 404.798 247.075 403.749 248.381
C 399.224 254.013 392.908 258.826 386.696 262.415
C 366.487 274.093 339.44 273.977 319.458 261.873
C 314.874 259.096 310.726 255.843 306.818 252.192
C 305.324 250.795 303.254 249.607 303.018 247.421
C 303.153 247.251 303.287 247.08 303.421 246.91 Z"
opacity="1" fill="rgb(1,1,1)" fill-rule="evenodd" />
<path d="
M 304.434 412.603
C 305.465 406.713 307.597 400.782 312.049 396.551
C 320.912 388.131 336.774 387.436 345.954 395.693
C 351.016 400.246 353.311 406.697 354.046 413.323
C 354.296 415.582 353.953 417.938 354.251 420.17
C 341.268 419.865 328.227 420.379 315.245 420.376
C 316.615 423.828 317.085 427.076 320.116 429.686
C 326.927 435.55 339.007 433.901 345.225 428.004
C 345.74 427.847 346.462 429.21 346.793 429.651
C 348.033 431.309 350.178 433.064 351.01 434.925
C 350.331 436.46 347.967 437.836 346.577 438.703
C 342.1 441.496 336.75 442.769 331.502 442.839
C 326.967 442.899 322.426 442.123 318.261 440.296
C 307.514 435.583 303.007 423.749 304.434 412.603 Z
M 315.408 410.571
C 315.258 411.253 315.041 411.899 315.221 412.582
C 318.465 412.214 322.033 412.62 325.32 412.606
C 331.371 412.58 337.428 412.357 343.478 412.438
C 343.093 408.473 341.207 404.049 337.977 401.604
C 333.51 398.223 326.156 398.417 321.531 401.343
C 317.887 403.65 316.961 406.83 315.408 410.571 Z"
opacity="1" fill="rgb(1,1,1)" fill-rule="evenodd" />
<path d="
M 362.329 433.049
C 363.739 430.075 365.655 426.845 366.381 423.622
C 373.113 430.316 385.146 433.891 394.422 432.67
C 400.57 431.861 406.791 427.472 404.156 420.557
C 402.439 416.049 396.961 414.705 392.824 413.491
C 384.642 411.091 372.94 409.67 367.872 401.932
C 363.279 394.918 364.853 384.51 370.508 378.596
C 373.012 375.976 376.283 374.306 379.716 373.245
C 391.44 369.618 404.102 373.256 414.424 378.909
C 413.221 382.299 411.702 385.646 410.34 388.957
C 409.072 387.388 405.961 386.16 404.145 385.362
C 398.188 382.745 391.023 380.91 384.52 382.426
C 379.622 383.569 375.506 388.086 377.086 393.345
C 378.569 398.284 385.118 400.017 389.556 401.157
C 397.909 403.304 409.211 405.571 413.916 413.609
C 418.092 420.745 416.646 430.543 410.7 436.269
C 407.742 439.119 403.667 440.851 399.752 441.905
C 389.491 444.669 377.403 442.465 368.116 437.625
C 365.936 436.488 364.212 434.961 362.207 433.61
C 362.247 433.423 362.288 433.236 362.329 433.049 Z"
opacity="1" fill="rgb(179,29,34)" fill-rule="evenodd" />
<path d="
M 429.248 371.745
C 431.863 371.804 434.48 371.798 437.096 371.747
C 438.15 371.727 439.496 371.425 440.491 371.749
C 440.236 374.311 440.377 377.135 440.571 379.709
C 440.64 380.622 440.924 382.249 440.262 382.972
C 436.663 382.79 432.838 382.779 429.252 383.081
C 429.34 379.333 429.468 375.488 429.248 371.745 Z"
opacity="1" fill="rgb(172,26,32)" fill-rule="evenodd" />
<path d="
M 429.472 391.571
C 429.52 391.381 429.568 391.191 429.617 391.001
C 433.078 390.94 436.991 390.418 440.408 390.994
C 440.459 401.992 440.365 413.001 440.394 424.003
C 440.409 429.827 441.008 436.025 440.393 441.809
C 436.8 441.711 433.158 441.615 429.571 441.857
C 428.98 435.499 429.411 428.888 429.397 422.498
C 429.376 412.199 429.185 401.866 429.472 391.571 Z"
opacity="1" fill="rgb(176,30,33)" fill-rule="evenodd" />
<path d="
M 456.115 391.144
C 459.487 390.969 462.941 391.403 466.297 391.056
C 466.433 392.966 467.217 394.961 466.99 396.881
C 467.968 396.418 468.473 395.397 469.219 394.656
C 470.507 393.375 472.02 392.42 473.662 391.667
C 479.749 388.876 488.358 389.257 493.918 393.07
C 495.96 394.47 496.863 396.581 498.558 398.175
C 500.504 395.826 502.145 393.643 504.964 392.224
C 514.33 387.509 528.899 389.472 532.721 400.499
C 534.414 405.383 534.318 410.389 534.302 415.488
C 534.284 420.992 534.254 426.496 534.259 432
C 534.262 434.956 533.555 438.992 534.324 441.825
C 530.757 441.69 527.099 441.539 523.538 441.822
C 523.179 441.15 523.415 439.939 523.411 439.177
C 523.403 437.117 523.384 435.058 523.38 432.998
C 523.368 427.014 523.363 421.03 523.357 415.046
C 523.353 411.815 523.707 408.273 522.169 405.303
C 517.843 396.956 505.339 399.47 501.79 407.088
C 500.252 410.388 500.921 415.124 500.937 418.681
C 500.972 426.404 501.023 434.125 501.142 441.84
C 497.474 441.654 493.787 441.909 490.125 441.707
C 490.199 433.745 489.9 425.773 489.903 417.809
C 489.904 413.858 490.574 409.163 488.756 405.521
C 484.466 396.925 471.486 399.622 468.078 407.57
C 466.881 410.361 467.417 414.232 467.403 417.2
C 467.376 422.801 467.397 428.402 467.391 434.003
C 467.388 436.492 467.823 439.362 467.407 441.806
C 463.817 441.674 460.021 441.458 456.45 441.89
C 455.851 437.781 456.343 433.171 456.298 429.007
C 456.165 416.437 456.953 403.684 456.115 391.144 Z"
opacity="1" fill="rgb(178,31,36)" fill-rule="evenodd" />

</svg>